<svg width="23" height="23" viewBox="0 0 23 23" fill="none" xmlns="http://www.w3.org/2000/svg">
<path d="M19.7269 0H3.27307C1.41538 0 0 1.41539 0 3.27308V19.7269C0 21.5846 1.41538 23 3.27307 23H19.7269C21.5846 23 23 21.5846 23 19.7269V3.27308C23 1.41539 21.5846 0 19.7269 0ZM11.5 18.4C15.3038 18.4 18.4 15.3923 18.4 11.7654C18.4 11.1462 18.3115 10.4385 18.1346 9.90769H20.0808V19.2846C20.0808 19.7269 19.7269 20.1692 19.1961 20.1692H3.80385C3.36154 20.1692 2.91923 19.8154 2.91923 19.2846V9.81923H4.95385C4.77693 10.4385 4.68846 11.0577 4.68846 11.6769C4.6 15.3923 7.69615 18.4 11.5 18.4ZM11.5 15.7462C9.02308 15.7462 7.07692 13.8 7.07692 11.4115C7.07692 9.02308 9.02308 7.07692 11.5 7.07692C13.9769 7.07692 15.9231 9.02308 15.9231 11.4115C15.9231 13.8885 13.9769 15.7462 11.5 15.7462ZM19.9923 6.28077C19.9923 6.81154 19.55 7.25385 19.0192 7.25385H16.5423C16.0115 7.25385 15.5692 6.81154 15.5692 6.28077V3.89231C15.5692 3.36154 16.0115 2.91923 16.5423 2.91923H19.0192C19.55 2.91923 19.9923 3.36154 19.9923 3.89231V6.28077Z" fill="white"/>
</svg>
