<svg width="148" height="28" viewBox="0 0 148 28" fill="none" xmlns="http://www.w3.org/2000/svg">
<path d="M19.7269 2H3.27307C1.41538 2 0 3.41539 0 5.27308V21.7269C0 23.5846 1.41538 25 3.27307 25H19.7269C21.5846 25 23 23.5846 23 21.7269V5.27308C23 3.41539 21.5846 2 19.7269 2ZM11.5 20.4C15.3038 20.4 18.4 17.3923 18.4 13.7654C18.4 13.1462 18.3115 12.4385 18.1346 11.9077H20.0808V21.2846C20.0808 21.7269 19.7269 22.1692 19.1961 22.1692H3.80385C3.36154 22.1692 2.91923 21.8154 2.91923 21.2846V11.8192H4.95385C4.77693 12.4385 4.68846 13.0577 4.68846 13.6769C4.6 17.3923 7.69615 20.4 11.5 20.4ZM11.5 17.7462C9.02308 17.7462 7.07692 15.8 7.07692 13.4115C7.07692 11.0231 9.02308 9.07692 11.5 9.07692C13.9769 9.07692 15.9231 11.0231 15.9231 13.4115C15.9231 15.8885 13.9769 17.7462 11.5 17.7462ZM19.9923 8.28077C19.9923 8.81154 19.55 9.25385 19.0192 9.25385H16.5423C16.0115 9.25385 15.5692 8.81154 15.5692 8.28077V5.89231C15.5692 5.36154 16.0115 4.91923 16.5423 4.91923H19.0192C19.55 4.91923 19.9923 5.36154 19.9923 5.89231V8.28077Z" fill="white"/>
<path d="M42.598 8.1H44.808V20H42.598V8.1ZM58.6007 8.1V20H56.7817L50.2197 11.942V20H48.0267V8.1H49.8457L56.4077 16.158V8.1H58.6007ZM65.4784 20.17C64.5604 20.17 63.6707 20.0397 62.8094 19.779C61.9594 19.5183 61.2851 19.1727 60.7864 18.742L61.5514 17.025C62.0387 17.4103 62.6337 17.7277 63.3364 17.977C64.0504 18.215 64.7644 18.334 65.4784 18.334C66.3624 18.334 67.0197 18.1923 67.4504 17.909C67.8924 17.6257 68.1134 17.2517 68.1134 16.787C68.1134 16.447 67.9887 16.1693 67.7394 15.954C67.5014 15.7273 67.1954 15.5517 66.8214 15.427C66.4474 15.3023 65.9374 15.1607 65.2914 15.002C64.3847 14.7867 63.6481 14.5713 63.0814 14.356C62.5261 14.1407 62.0444 13.8063 61.6364 13.353C61.2397 12.8883 61.0414 12.265 61.0414 11.483C61.0414 10.8257 61.2171 10.2307 61.5684 9.698C61.9311 9.154 62.4694 8.72333 63.1834 8.406C63.9087 8.08867 64.7927 7.93 65.8354 7.93C66.5607 7.93 67.2747 8.02067 67.9774 8.202C68.6801 8.38333 69.2864 8.644 69.7964 8.984L69.0994 10.701C68.5781 10.395 68.0341 10.1627 67.4674 10.004C66.9007 9.84533 66.3511 9.766 65.8184 9.766C64.9457 9.766 64.2941 9.91333 63.8634 10.208C63.4441 10.5027 63.2344 10.8937 63.2344 11.381C63.2344 11.721 63.3534 11.9987 63.5914 12.214C63.8407 12.4293 64.1524 12.5993 64.5264 12.724C64.9004 12.8487 65.4104 12.9903 66.0564 13.149C66.9404 13.353 67.6657 13.5683 68.2324 13.795C68.7991 14.0103 69.2807 14.3447 69.6774 14.798C70.0854 15.2513 70.2894 15.8633 70.2894 16.634C70.2894 17.2913 70.1081 17.8863 69.7454 18.419C69.3941 18.9517 68.8557 19.3767 68.1304 19.694C67.4051 20.0113 66.5211 20.17 65.4784 20.17ZM74.7288 9.97H70.7848V8.1H80.8828V9.97H76.9388V20H74.7288V9.97ZM89.6617 17.246H83.7117L82.5387 20H80.2607L85.6157 8.1H87.7917L93.1637 20H90.8517L89.6617 17.246ZM88.9307 15.512L86.6867 10.31L84.4597 15.512H88.9307ZM102.637 13.914H104.728V18.657C104.116 19.1443 103.402 19.5183 102.586 19.779C101.77 20.0397 100.931 20.17 100.07 20.17C98.8574 20.17 97.7638 19.9093 96.7891 19.388C95.8144 18.8553 95.0494 18.1243 94.4941 17.195C93.9388 16.2657 93.6611 15.2173 93.6611 14.05C93.6611 12.8827 93.9388 11.8343 94.4941 10.905C95.0494 9.97567 95.8144 9.25033 96.7891 8.729C97.7751 8.19633 98.8801 7.93 100.104 7.93C101.101 7.93 102.008 8.09433 102.824 8.423C103.64 8.75167 104.326 9.23333 104.881 9.868L103.487 11.228C102.58 10.3213 101.487 9.868 100.206 9.868C99.3674 9.868 98.6194 10.0437 97.9621 10.395C97.3161 10.7463 96.8061 11.2393 96.4321 11.874C96.0694 12.5087 95.8881 13.234 95.8881 14.05C95.8881 14.8433 96.0694 15.5573 96.4321 16.192C96.8061 16.8267 97.3161 17.3253 97.9621 17.688C98.6194 18.0507 99.3618 18.232 100.189 18.232C101.118 18.232 101.934 18.028 102.637 17.62V13.914ZM115.429 20L112.998 16.515C112.896 16.5263 112.743 16.532 112.539 16.532H109.853V20H107.643V8.1H112.539C113.57 8.1 114.466 8.27 115.225 8.61C115.996 8.95 116.585 9.43733 116.993 10.072C117.401 10.7067 117.605 11.4603 117.605 12.333C117.605 13.2283 117.384 13.999 116.942 14.645C116.511 15.291 115.888 15.7727 115.072 16.09L117.809 20H115.429ZM115.378 12.333C115.378 11.5737 115.129 10.99 114.63 10.582C114.131 10.174 113.4 9.97 112.437 9.97H109.853V14.713H112.437C113.4 14.713 114.131 14.509 114.63 14.101C115.129 13.6817 115.378 13.0923 115.378 12.333ZM127.795 17.246H121.845L120.672 20H118.394L123.749 8.1H125.925L131.297 20H128.985L127.795 17.246ZM127.064 15.512L124.82 10.31L122.593 15.512H127.064ZM143.742 20L143.725 12.112L139.815 18.64H138.829L134.919 12.214V20H132.811V8.1H134.63L139.356 15.988L143.997 8.1H145.816L145.833 20H143.742Z" fill="white"/>
</svg>
