<svg width="16" height="16" viewBox="0 0 16 16" fill="none" xmlns="http://www.w3.org/2000/svg">
<path fill-rule="evenodd" clip-rule="evenodd" d="M8.49791 0.5C8.49791 0.223858 8.27405 0 7.99791 0C7.72177 0 7.49791 0.223858 7.49791 0.5V7.49792H0.5C0.223858 7.49792 0 7.72177 0 7.99792C0 8.27406 0.223858 8.49792 0.5 8.49792H7.49791V15.4958C7.49791 15.772 7.72177 15.9958 7.99791 15.9958C8.27405 15.9958 8.49791 15.772 8.49791 15.4958V8.49792H15.4958C15.772 8.49792 15.9958 8.27406 15.9958 7.99792C15.9958 7.72177 15.772 7.49792 15.4958 7.49792H8.49791V0.5Z" fill="#ADACAC"/>
</svg>
